# MagicaVoxel @ Ephtracy

# group
o 

# material
mtllib untitled.mtl
usemtl palette

# normals
vn -1 0 0
vn 1 0 0
vn 0 0 1
vn 0 0 -1
vn 0 -1 0
vn 0 1 0

# texcoords
vt 0.978516 0.5
vt 0.994141 0.5

# verts
v -1.6 0 1.9
v -1.6 0 -1.1
v -1.6 0.1 1.9
v -1.6 0.1 -1.1
v -1.4 2.7 1.6
v -1.4 2.7 1.3
v -1.4 2.8 1.6
v -1.4 2.8 1.5
v -1.4 3.9 1.5
v -1.4 3.9 1.3
v -1.3 0.1 1.7
v -1.3 0.1 -0.9
v -1.3 0.7 1.7
v -1.3 0.7 -0.9
v -1.3 2.7 1.3
v -1.3 2.7 1.2
v -1.3 3.8 1.6
v -1.3 3.8 1.5
v -1.3 3.9 1.5
v -1.3 3.9 1.3
v -1.3 3.9 1.2
v -1.3 4 1.6
v -1.3 4 1.5
v -1.2 0.9 0.5
v -1.2 0.9 0.3
v -1.2 2.3 1.2
v -1.2 2.3 0.5
v -1.2 2.3 0.3
v -1.2 2.3 -0.4
v -1.2 2.6 1.2
v -1.2 2.6 -0.4
v -1.1 0.7 1.5
v -1.1 0.7 -0.7
v -1.1 0.7 -0.8
v -1.1 0.8 -0.7
v -1.1 0.8 -0.8
v -1.1 0.9 0.5
v -1.1 0.9 0.3
v -1.1 2.3 1.2
v -1.1 2.3 0.5
v -1.1 2.3 0.3
v -1.1 2.3 -0.4
v -1.1 2.5 1.7
v -1.1 2.5 1.6
v -1.1 2.5 1.5
v -1.1 2.6 1.2
v -1.1 2.6 -0.4
v -1.1 2.7 1.7
v -1.1 2.7 1.6
v -1.1 2.7 1.5
v -1.1 2.7 1.2
v -1.1 2.8 1.1
v -1.1 2.8 -0.3
v -1.1 3.8 1.1
v -1.1 3.8 -0.3
v -1.1 3.9 1.5
v -1.1 3.9 1.2
v -1.1 4 1.5
v -1.1 4 -0.7
v -0.7 3 -1.9
v -0.7 3 -2
v -0.7 3.1 -1.9
v -0.7 3.1 -2
v 0.7 2.7 1.1
v 0.7 2.7 -0.4
v 0.7 2.8 1.6
v 0.7 2.8 1.5
v 0.7 2.8 1.1
v 0.7 2.8 -0.3
v 0.7 2.8 -0.4
v 0.7 2.8 -0.7
v 0.7 2.9 1.6
v 0.7 2.9 1.5
v 0.7 3.8 1.6
v 0.7 3.8 1.5
v 0.7 3.8 1.1
v 0.7 3.8 -0.3
v 0.7 3.8 -0.7
v 0.7 4 1.6
v 0.7 4 1.5
v -0.6 3 -1.9
v -0.6 3 -2
v -0.6 3.1 -1.9
v -0.6 3.1 -2
v -0.6 3.8 1.6
v -0.6 3.8 1.5
v -0.6 4 1.6
v -0.6 4 1.5
v -0.5 2.7 1.6
v -0.5 2.7 1.5
v -0.5 2.7 1.1
v -0.5 2.7 -0.4
v -0.5 2.8 1.6
v -0.5 2.8 1.5
v -0.5 2.8 1.1
v -0.5 2.8 -0.3
v -0.5 2.8 -0.4
v -0.5 2.8 -0.7
v -0.5 3.8 1.5
v -0.5 3.8 1.1
v -0.5 3.8 -0.3
v -0.5 3.8 -0.7
v 1.1 0.7 -0.7
v 1.1 0.7 -0.8
v 1.1 0.8 -0.7
v 1.1 0.8 -0.8
v 1.2 0.7 1.5
v 1.2 0.7 -0.7
v 1.2 0.8 0.5
v 1.2 0.8 0.2
v 1.2 2.2 1.1
v 1.2 2.2 0.5
v 1.2 2.2 0.2
v 1.2 2.2 -0.3
v 1.2 2.5 1.7
v 1.2 2.5 1.6
v 1.2 2.5 1.5
v 1.2 2.5 1.1
v 1.2 2.5 -0.3
v 1.2 2.7 1.7
v 1.2 2.7 1.6
v 1.2 2.7 1.5
v 1.2 2.8 1.5
v 1.2 2.8 1.3
v 1.2 2.8 1.1
v 1.2 2.8 -0.3
v 1.2 3.8 1.1
v 1.2 3.8 -0.3
v 1.2 3.9 1.5
v 1.2 3.9 1.3
v 1.2 4 1.5
v 1.2 4 -0.7
v 1.3 0.8 0.5
v 1.3 0.8 0.2
v 1.3 2.2 1.1
v 1.3 2.2 0.5
v 1.3 2.2 0.2
v 1.3 2.2 -0.3
v 1.3 2.5 1.1
v 1.3 2.5 -0.3
v 1.4 0.1 1.7
v 1.4 0.1 -0.9
v 1.4 0.7 1.7
v 1.4 0.7 -0.9
v 1.4 2.8 1.6
v 1.4 2.8 1.5
v 1.4 2.9 1.6
v 1.4 2.9 1.5
v 1.4 3.8 1.6
v 1.4 3.8 1.5
v 1.4 3.9 1.5
v 1.4 4 1.6
v 1.4 4 1.5
v 1.5 2.8 1.5
v 1.5 2.8 1.3
v 1.5 3.9 1.5
v 1.5 3.9 1.3
v 1.7 0 1.9
v 1.7 0 -1.1
v 1.7 0.1 1.9
v 1.7 0.1 -1.1
v -1.6 0 1.9
v -1.6 0.1 1.9
v 1.7 0 1.9
v 1.7 0.1 1.9
v -1.3 0.1 1.7
v -1.3 0.7 1.7
v -1.1 2.5 1.7
v -1.1 2.7 1.7
v 1.2 2.5 1.7
v 1.2 2.7 1.7
v 1.4 0.1 1.7
v 1.4 0.7 1.7
v -1.4 2.7 1.6
v -1.4 2.8 1.6
v -1.3 3.8 1.6
v -1.3 4 1.6
v -1.1 2.7 1.6
v -0.6 3.8 1.6
v -0.6 4 1.6
v -0.5 2.7 1.6
v -0.5 2.8 1.6
v 0.7 2.8 1.6
v 0.7 2.9 1.6
v 0.7 3.8 1.6
v 0.7 4 1.6
v 1.4 2.8 1.6
v 1.4 2.9 1.6
v 1.4 3.8 1.6
v 1.4 4 1.6
v -1.4 2.8 1.5
v -1.4 3.9 1.5
v -1.3 2.8 1.5
v -1.3 3.8 1.5
v -1.3 3.9 1.5
v -1.1 0.7 1.5
v -1.1 2.5 1.5
v -0.6 3.8 1.5
v -0.6 4 1.5
v -0.5 2.7 1.5
v -0.5 2.8 1.5
v -0.5 3.8 1.5
v 0.7 2.8 1.5
v 0.7 2.9 1.5
v 0.7 3.8 1.5
v 0.7 4 1.5
v 1.2 0.7 1.5
v 1.2 2.5 1.5
v 1.2 2.7 1.5
v 1.2 2.8 1.5
v 1.4 2.8 1.5
v 1.4 2.9 1.5
v 1.4 3.8 1.5
v 1.4 3.9 1.5
v 1.5 2.8 1.5
v 1.5 3.9 1.5
v -1.2 2.3 1.2
v -1.2 2.6 1.2
v -1.1 2.3 1.2
v -1.1 2.6 1.2
v 1.2 2.2 1.1
v 1.2 2.5 1.1
v 1.3 2.2 1.1
v 1.3 2.5 1.1
v -1.2 0.9 0.5
v -1.2 2.3 0.5
v -1.1 0.9 0.5
v -1.1 2.3 0.5
v 1.2 0.8 0.5
v 1.2 2.2 0.5
v 1.3 0.8 0.5
v 1.3 2.2 0.5
v -1.1 2.8 -0.3
v -1.1 3.8 -0.3
v -0.5 2.8 -0.3
v -0.5 3.8 -0.3
v 0.7 2.8 -0.3
v 0.7 3.8 -0.3
v 1.2 2.8 -0.3
v 1.2 3.8 -0.3
v -0.5 2.7 -0.4
v -0.5 2.8 -0.4
v 0.7 2.7 -0.4
v 0.7 2.8 -0.4
v -0.7 3 -1.9
v -0.7 3.1 -1.9
v -0.6 3 -1.9
v -0.6 3.1 -1.9
v -1.3 3.9 1.5
v -1.3 4 1.5
v -1.1 3.9 1.5
v -1.1 4 1.5
v 1.2 3.9 1.5
v 1.2 4 1.5
v 1.4 3.9 1.5
v 1.4 4 1.5
v -1.4 2.7 1.3
v -1.4 3.9 1.3
v -1.3 2.7 1.3
v -1.3 3.9 1.3
v 1.2 2.8 1.3
v 1.2 3.9 1.3
v 1.4 2.8 1.3
v 1.4 3.9 1.3
v 1.5 2.8 1.3
v 1.5 3.9 1.3
v -1.3 2.7 1.2
v -1.3 3.9 1.2
v -1.1 2.7 1.2
v -1.1 3.9 1.2
v -1.1 2.8 1.1
v -1.1 3.8 1.1
v -0.5 2.7 1.1
v -0.5 2.8 1.1
v -0.5 3.8 1.1
v 0.7 2.7 1.1
v 0.7 2.8 1.1
v 0.7 3.8 1.1
v 1.2 2.8 1.1
v 1.2 3.8 1.1
v -1.2 0.9 0.3
v -1.2 2.3 0.3
v -1.1 0.9 0.3
v -1.1 2.3 0.3
v 1.2 0.8 0.2
v 1.2 2.2 0.2
v 1.3 0.8 0.2
v 1.3 2.2 0.2
v 1.2 2.2 -0.3
v 1.2 2.5 -0.3
v 1.3 2.2 -0.3
v 1.3 2.5 -0.3
v -1.2 2.3 -0.4
v -1.2 2.6 -0.4
v -1.1 2.3 -0.4
v -1.1 2.6 -0.4
v -1.1 0.8 -0.7
v -1.1 4 -0.7
v -0.5 2.8 -0.7
v -0.5 3.8 -0.7
v 0.7 2.8 -0.7
v 0.7 3.8 -0.7
v 1.1 0.7 -0.7
v 1.1 0.8 -0.7
v 1.2 0.7 -0.7
v 1.2 4 -0.7
v -1.1 0.7 -0.8
v -1.1 0.8 -0.8
v 1.1 0.7 -0.8
v 1.1 0.8 -0.8
v -1.3 0.1 -0.9
v -1.3 0.7 -0.9
v 1.4 0.1 -0.9
v 1.4 0.7 -0.9
v -1.6 0 -1.1
v -1.6 0.1 -1.1
v 1.7 0 -1.1
v 1.7 0.1 -1.1
v -0.7 3 -2
v -0.7 3.1 -2
v -0.6 3 -2
v -0.6 3.1 -2
v -1.6 0 1.9
v 1.7 0 1.9
v -1.6 0 -1.1
v 1.7 0 -1.1
v 1.2 0.8 0.5
v 1.3 0.8 0.5
v 1.2 0.8 0.2
v 1.3 0.8 0.2
v -1.2 0.9 0.5
v -1.1 0.9 0.5
v -1.2 0.9 0.3
v -1.1 0.9 0.3
v 1.2 2.2 1.1
v 1.3 2.2 1.1
v 1.2 2.2 0.5
v 1.3 2.2 0.5
v 1.2 2.2 0.2
v 1.3 2.2 0.2
v 1.2 2.2 -0.3
v 1.3 2.2 -0.3
v -1.2 2.3 1.2
v -1.1 2.3 1.2
v -1.2 2.3 0.5
v -1.1 2.3 0.5
v -1.2 2.3 0.3
v -1.1 2.3 0.3
v -1.2 2.3 -0.4
v -1.1 2.3 -0.4
v -1.1 2.5 1.7
v 1.2 2.5 1.7
v -1.1 2.5 1.6
v 1.2 2.5 1.6
v -1.1 2.5 1.5
v 1.2 2.5 1.5
v -1.4 2.7 1.6
v -1.1 2.7 1.6
v -1.3 2.7 1.5
v -1.1 2.7 1.5
v -1.4 2.7 1.3
v -1.3 2.7 1.3
v -1.3 2.7 1.2
v -1.1 2.7 1.2
v 0.7 2.8 1.6
v 1.4 2.8 1.6
v 0.7 2.8 1.5
v 1.2 2.8 1.5
v 1.4 2.8 1.5
v 1.5 2.8 1.5
v 1.2 2.8 1.3
v 1.4 2.8 1.3
v 1.5 2.8 1.3
v -0.7 3 -1.9
v -0.6 3 -1.9
v -0.7 3 -2
v -0.6 3 -2
v -1.3 3.8 1.6
v -0.6 3.8 1.6
v 0.7 3.8 1.6
v 1.4 3.8 1.6
v -1.3 3.8 1.5
v -0.6 3.8 1.5
v -0.5 3.8 1.5
v 0.7 3.8 1.5
v 1.4 3.8 1.5
v -1.1 3.8 1.1
v -0.5 3.8 1.1
v 0.7 3.8 1.1
v 1.2 3.8 1.1
v -1.1 3.8 -0.3
v -0.5 3.8 -0.3
v 0.7 3.8 -0.3
v 1.2 3.8 -0.3
v -0.5 3.8 -0.7
v 0.7 3.8 -0.7
v -1.6 0.1 1.9
v 1.7 0.1 1.9
v -1.3 0.1 1.7
v 1.4 0.1 1.7
v -1.3 0.1 -0.9
v 1.4 0.1 -0.9
v -1.6 0.1 -1.1
v 1.7 0.1 -1.1
v -1.3 0.7 1.7
v 1.4 0.7 1.7
v -1.1 0.7 1.5
v 1.2 0.7 1.5
v -1.1 0.7 -0.7
v 1.1 0.7 -0.7
v 1.2 0.7 -0.7
v -1.1 0.7 -0.8
v 1.1 0.7 -0.8
v -1.3 0.7 -0.9
v 1.4 0.7 -0.9
v -1.1 0.8 -0.7
v 1.1 0.8 -0.7
v -1.1 0.8 -0.8
v 1.1 0.8 -0.8
v 1.2 2.5 1.1
v 1.3 2.5 1.1
v 1.2 2.5 -0.3
v 1.3 2.5 -0.3
v -1.2 2.6 1.2
v -1.1 2.6 1.2
v -1.2 2.6 -0.4
v -1.1 2.6 -0.4
v -1.1 2.7 1.7
v 1.2 2.7 1.7
v -1.1 2.7 1.6
v -0.5 2.7 1.6
v 1.2 2.7 1.6
v -0.5 2.7 1.5
v 1.2 2.7 1.5
v -0.5 2.7 1.1
v 0.7 2.7 1.1
v -0.5 2.7 -0.4
v 0.7 2.7 -0.4
v -1.4 2.8 1.6
v -0.5 2.8 1.6
v -1.4 2.8 1.5
v -1.3 2.8 1.5
v -0.5 2.8 1.5
v 0.7 2.8 1.5
v -1.1 2.8 1.1
v -0.5 2.8 1.1
v 0.7 2.8 1.1
v 1.2 2.8 1.1
v -1.1 2.8 -0.3
v -0.5 2.8 -0.3
v 0.7 2.8 -0.3
v 1.2 2.8 -0.3
v -0.5 2.8 -0.4
v 0.7 2.8 -0.4
v -0.5 2.8 -0.7
v 0.7 2.8 -0.7
v 0.7 2.9 1.6
v 1.4 2.9 1.6
v 0.7 2.9 1.5
v 1.4 2.9 1.5
v -0.7 3.1 -1.9
v -0.6 3.1 -1.9
v -0.7 3.1 -2
v -0.6 3.1 -2
v -1.4 3.9 1.5
v -1.3 3.9 1.5
v -1.1 3.9 1.5
v 1.2 3.9 1.5
v 1.4 3.9 1.5
v 1.5 3.9 1.5
v -1.4 3.9 1.3
v -1.3 3.9 1.3
v 1.2 3.9 1.3
v 1.4 3.9 1.3
v 1.5 3.9 1.3
v -1.3 3.9 1.2
v -1.1 3.9 1.2
v -1.3 4 1.6
v -0.6 4 1.6
v 0.7 4 1.6
v 1.4 4 1.6
v -1.3 4 1.5
v -1.1 4 1.5
v -0.6 4 1.5
v 0.7 4 1.5
v 1.2 4 1.5
v 1.4 4 1.5
v -1.1 4 -0.7
v 1.2 4 -0.7

# faces
f 3/1/1 2/1/1 1/1/1
f 4/1/1 2/1/1 3/1/1
f 7/2/1 6/2/1 5/2/1
f 8/2/1 6/2/1 7/2/1
f 9/2/1 6/2/1 8/2/1
f 10/2/1 6/2/1 9/2/1
f 13/1/1 12/1/1 11/1/1
f 14/1/1 12/1/1 13/1/1
f 19/2/1 18/2/1 17/2/1
f 20/1/1 16/1/1 15/1/1
f 21/1/1 16/1/1 20/1/1
f 22/2/1 19/2/1 17/2/1
f 23/2/1 19/2/1 22/2/1
f 27/2/1 25/2/1 24/2/1
f 28/2/1 25/2/1 27/2/1
f 30/2/1 27/2/1 26/2/1
f 30/2/1 29/2/1 28/2/1
f 30/2/1 28/2/1 27/2/1
f 31/2/1 29/2/1 30/2/1
f 35/1/1 33/1/1 32/1/1
f 35/2/1 34/2/1 33/2/1
f 36/2/1 34/2/1 35/2/1
f 37/1/1 35/1/1 32/1/1
f 38/1/1 35/1/1 37/1/1
f 39/1/1 37/1/1 32/1/1
f 40/1/1 37/1/1 39/1/1
f 41/1/1 35/1/1 38/1/1
f 42/1/1 35/1/1 41/1/1
f 45/1/1 39/1/1 32/1/1
f 46/1/1 39/1/1 45/1/1
f 46/1/1 45/1/1 44/1/1
f 47/1/1 35/1/1 42/1/1
f 48/2/1 44/2/1 43/2/1
f 49/1/1 46/1/1 44/1/1
f 49/2/1 44/2/1 48/2/1
f 49/1/1 47/1/1 46/1/1
f 50/1/1 47/1/1 49/1/1
f 51/1/1 47/1/1 50/1/1
f 52/1/1 47/1/1 51/1/1
f 53/1/1 47/1/1 52/1/1
f 54/1/1 52/1/1 51/1/1
f 55/1/1 47/1/1 53/1/1
f 57/1/1 54/1/1 51/1/1
f 57/1/1 55/1/1 54/1/1
f 58/1/1 57/1/1 56/1/1
f 59/1/1 35/1/1 47/1/1
f 59/1/1 57/1/1 58/1/1
f 59/1/1 47/1/1 55/1/1
f 59/1/1 55/1/1 57/1/1
f 62/2/1 61/2/1 60/2/1
f 63/2/1 61/2/1 62/2/1
f 68/1/1 65/1/1 64/1/1
f 69/1/1 65/1/1 68/1/1
f 70/1/1 65/1/1 69/1/1
f 72/2/1 67/2/1 66/2/1
f 73/1/1 68/1/1 67/1/1
f 73/2/1 67/2/1 72/2/1
f 75/1/1 68/1/1 73/1/1
f 76/1/1 68/1/1 75/1/1
f 77/1/1 71/1/1 70/1/1
f 77/1/1 70/1/1 69/1/1
f 78/1/1 71/1/1 77/1/1
f 79/2/1 75/2/1 74/2/1
f 80/2/1 75/2/1 79/2/1
f 81/2/2 82/2/2 83/2/2
f 83/2/2 82/2/2 84/2/2
f 85/2/2 86/2/2 87/2/2
f 87/2/2 86/2/2 88/2/2
f 89/2/2 90/2/2 93/2/2
f 93/2/2 90/2/2 94/2/2
f 91/1/2 92/1/2 95/1/2
f 95/1/2 92/1/2 96/1/2
f 96/1/2 92/1/2 97/1/2
f 94/1/2 95/1/2 99/1/2
f 99/1/2 95/1/2 100/1/2
f 97/1/2 98/1/2 101/1/2
f 96/1/2 97/1/2 101/1/2
f 101/1/2 98/1/2 102/1/2
f 103/2/2 104/2/2 105/2/2
f 105/2/2 104/2/2 106/2/2
f 107/1/2 108/1/2 109/1/2
f 109/1/2 108/1/2 110/1/2
f 107/1/2 109/1/2 111/1/2
f 111/1/2 109/1/2 112/1/2
f 110/1/2 108/1/2 113/1/2
f 113/1/2 108/1/2 114/1/2
f 107/1/2 111/1/2 117/1/2
f 117/1/2 111/1/2 118/1/2
f 114/1/2 108/1/2 119/1/2
f 115/2/2 116/2/2 120/2/2
f 117/1/2 118/1/2 121/1/2
f 120/2/2 116/2/2 121/2/2
f 118/1/2 119/1/2 121/1/2
f 116/1/2 117/1/2 121/1/2
f 121/1/2 119/1/2 122/1/2
f 122/1/2 119/1/2 123/1/2
f 123/1/2 119/1/2 124/1/2
f 124/1/2 119/1/2 125/1/2
f 119/1/2 108/1/2 126/1/2
f 125/1/2 119/1/2 126/1/2
f 124/1/2 125/1/2 127/1/2
f 126/1/2 108/1/2 128/1/2
f 124/1/2 127/1/2 130/1/2
f 127/1/2 128/1/2 130/1/2
f 129/1/2 130/1/2 131/1/2
f 128/1/2 108/1/2 132/1/2
f 131/1/2 130/1/2 132/1/2
f 130/1/2 128/1/2 132/1/2
f 133/2/2 134/2/2 136/2/2
f 136/2/2 134/2/2 137/2/2
f 135/2/2 136/2/2 139/2/2
f 137/2/2 138/2/2 139/2/2
f 136/2/2 137/2/2 139/2/2
f 139/2/2 138/2/2 140/2/2
f 141/1/2 142/1/2 143/1/2
f 143/1/2 142/1/2 144/1/2
f 145/2/2 146/2/2 147/2/2
f 147/2/2 146/2/2 148/2/2
f 149/2/2 150/2/2 151/2/2
f 149/2/2 151/2/2 152/2/2
f 152/2/2 151/2/2 153/2/2
f 154/2/2 155/2/2 156/2/2
f 156/2/2 155/2/2 157/2/2
f 158/1/2 159/1/2 160/1/2
f 160/1/2 159/1/2 161/1/2
f 164/1/3 163/1/3 162/1/3
f 165/1/3 163/1/3 164/1/3
f 170/2/3 169/2/3 168/2/3
f 171/2/3 169/2/3 170/2/3
f 172/1/3 167/1/3 166/1/3
f 173/1/3 167/1/3 172/1/3
f 178/2/3 175/2/3 174/2/3
f 179/2/3 177/2/3 176/2/3
f 180/2/3 177/2/3 179/2/3
f 181/2/3 175/2/3 178/2/3
f 182/2/3 175/2/3 181/2/3
f 187/2/3 184/2/3 183/2/3
f 188/2/3 184/2/3 187/2/3
f 189/2/3 186/2/3 185/2/3
f 190/2/3 186/2/3 189/2/3
f 193/2/3 192/2/3 191/2/3
f 194/2/3 192/2/3 193/2/3
f 195/2/3 192/2/3 194/2/3
f 198/1/3 194/1/3 193/1/3
f 201/1/3 198/1/3 193/1/3
f 201/1/3 199/1/3 198/1/3
f 202/1/3 199/1/3 201/1/3
f 203/1/3 201/1/3 200/1/3
f 205/1/3 199/1/3 202/1/3
f 206/1/3 199/1/3 205/1/3
f 207/1/3 197/1/3 196/1/3
f 208/1/3 197/1/3 207/1/3
f 209/1/3 203/1/3 200/1/3
f 210/1/3 203/1/3 209/1/3
f 212/1/3 205/1/3 204/1/3
f 213/1/3 205/1/3 212/1/3
f 215/2/3 212/2/3 211/2/3
f 215/2/3 214/2/3 213/2/3
f 215/2/3 213/2/3 212/2/3
f 216/2/3 214/2/3 215/2/3
f 219/2/3 218/2/3 217/2/3
f 220/2/3 218/2/3 219/2/3
f 223/2/3 222/2/3 221/2/3
f 224/2/3 222/2/3 223/2/3
f 227/2/3 226/2/3 225/2/3
f 228/2/3 226/2/3 227/2/3
f 231/2/3 230/2/3 229/2/3
f 232/2/3 230/2/3 231/2/3
f 235/1/3 234/1/3 233/1/3
f 236/1/3 234/1/3 235/1/3
f 239/1/3 238/1/3 237/1/3
f 240/1/3 238/1/3 239/1/3
f 243/1/3 242/1/3 241/1/3
f 244/1/3 242/1/3 243/1/3
f 247/2/3 246/2/3 245/2/3
f 248/2/3 246/2/3 247/2/3
f 249/2/4 250/2/4 251/2/4
f 251/2/4 250/2/4 252/2/4
f 253/2/4 254/2/4 255/2/4
f 255/2/4 254/2/4 256/2/4
f 257/2/4 258/2/4 259/2/4
f 259/2/4 258/2/4 260/2/4
f 261/1/4 262/1/4 263/1/4
f 263/1/4 262/1/4 264/1/4
f 263/2/4 264/2/4 265/2/4
f 265/2/4 264/2/4 266/2/4
f 267/1/4 268/1/4 269/1/4
f 269/1/4 268/1/4 270/1/4
f 271/1/4 272/1/4 274/1/4
f 274/1/4 272/1/4 275/1/4
f 273/1/4 274/1/4 276/1/4
f 276/1/4 274/1/4 277/1/4
f 277/1/4 278/1/4 279/1/4
f 279/1/4 278/1/4 280/1/4
f 281/2/4 282/2/4 283/2/4
f 283/2/4 282/2/4 284/2/4
f 285/2/4 286/2/4 287/2/4
f 287/2/4 286/2/4 288/2/4
f 289/2/4 290/2/4 291/2/4
f 291/2/4 290/2/4 292/2/4
f 293/2/4 294/2/4 295/2/4
f 295/2/4 294/2/4 296/2/4
f 297/1/4 298/1/4 299/1/4
f 299/1/4 298/1/4 300/1/4
f 297/1/4 299/1/4 301/1/4
f 300/1/4 298/1/4 302/1/4
f 297/1/4 301/1/4 304/1/4
f 301/1/4 302/1/4 304/1/4
f 303/1/4 304/1/4 305/1/4
f 302/1/4 298/1/4 306/1/4
f 305/1/4 304/1/4 306/1/4
f 304/1/4 302/1/4 306/1/4
f 307/2/4 308/2/4 309/2/4
f 309/2/4 308/2/4 310/2/4
f 311/1/4 312/1/4 313/1/4
f 313/1/4 312/1/4 314/1/4
f 315/1/4 316/1/4 317/1/4
f 317/1/4 316/1/4 318/1/4
f 319/2/4 320/2/4 321/2/4
f 321/2/4 320/2/4 322/2/4
f 325/1/5 324/1/5 323/1/5
f 326/1/5 324/1/5 325/1/5
f 329/2/5 328/2/5 327/2/5
f 330/2/5 328/2/5 329/2/5
f 333/2/5 332/2/5 331/2/5
f 334/2/5 332/2/5 333/2/5
f 337/2/5 336/2/5 335/2/5
f 338/2/5 336/2/5 337/2/5
f 341/2/5 340/2/5 339/2/5
f 342/2/5 340/2/5 341/2/5
f 345/2/5 344/2/5 343/2/5
f 346/2/5 344/2/5 345/2/5
f 349/2/5 348/2/5 347/2/5
f 350/2/5 348/2/5 349/2/5
f 353/2/5 352/2/5 351/2/5
f 354/2/5 352/2/5 353/2/5
f 355/1/5 354/1/5 353/1/5
f 356/1/5 354/1/5 355/1/5
f 359/2/5 358/2/5 357/2/5
f 360/2/5 358/2/5 359/2/5
f 361/2/5 359/2/5 357/2/5
f 362/1/5 360/1/5 359/1/5
f 362/2/5 359/2/5 361/2/5
f 363/1/5 360/1/5 362/1/5
f 364/1/5 360/1/5 363/1/5
f 367/2/5 366/2/5 365/2/5
f 368/2/5 366/2/5 367/2/5
f 369/2/5 366/2/5 368/2/5
f 371/1/5 369/1/5 368/1/5
f 372/2/5 370/2/5 369/2/5
f 372/1/5 369/1/5 371/1/5
f 373/2/5 370/2/5 372/2/5
f 376/2/5 375/2/5 374/2/5
f 377/2/5 375/2/5 376/2/5
f 382/2/5 379/2/5 378/2/5
f 383/2/5 379/2/5 382/2/5
f 385/2/5 381/2/5 380/2/5
f 386/2/5 381/2/5 385/2/5
f 388/1/5 385/1/5 384/1/5
f 389/1/5 385/1/5 388/1/5
f 391/1/5 388/1/5 387/1/5
f 391/1/5 390/1/5 389/1/5
f 391/1/5 389/1/5 388/1/5
f 392/1/5 390/1/5 391/1/5
f 393/1/5 390/1/5 392/1/5
f 394/1/5 390/1/5 393/1/5
f 395/1/5 393/1/5 392/1/5
f 396/1/5 393/1/5 395/1/5
f 397/1/6 398/1/6 399/1/6
f 399/1/6 398/1/6 400/1/6
f 397/1/6 399/1/6 401/1/6
f 400/1/6 398/1/6 402/1/6
f 397/1/6 401/1/6 403/1/6
f 401/1/6 402/1/6 403/1/6
f 402/1/6 398/1/6 404/1/6
f 403/1/6 402/1/6 404/1/6
f 405/1/6 406/1/6 407/1/6
f 407/1/6 406/1/6 408/1/6
f 405/1/6 407/1/6 409/1/6
f 408/1/6 406/1/6 411/1/6
f 405/1/6 409/1/6 412/1/6
f 410/1/6 411/1/6 413/1/6
f 405/1/6 412/1/6 414/1/6
f 412/1/6 413/1/6 414/1/6
f 413/1/6 411/1/6 415/1/6
f 414/1/6 413/1/6 415/1/6
f 411/1/6 406/1/6 415/1/6
f 416/2/6 417/2/6 418/2/6
f 418/2/6 417/2/6 419/2/6
f 420/2/6 421/2/6 422/2/6
f 422/2/6 421/2/6 423/2/6
f 424/2/6 425/2/6 426/2/6
f 426/2/6 425/2/6 427/2/6
f 428/2/6 429/2/6 430/2/6
f 430/2/6 429/2/6 431/2/6
f 431/2/6 429/2/6 432/2/6
f 431/1/6 432/1/6 433/1/6
f 433/1/6 432/1/6 434/1/6
f 435/1/6 436/1/6 437/1/6
f 437/1/6 436/1/6 438/1/6
f 439/2/6 440/2/6 441/2/6
f 441/2/6 440/2/6 442/2/6
f 442/2/6 440/2/6 443/2/6
f 443/1/6 444/1/6 446/1/6
f 446/1/6 444/1/6 447/1/6
f 445/1/6 446/1/6 449/1/6
f 449/1/6 446/1/6 450/1/6
f 447/1/6 448/1/6 451/1/6
f 451/1/6 448/1/6 452/1/6
f 453/1/6 454/1/6 455/1/6
f 455/1/6 454/1/6 456/1/6
f 457/2/6 458/2/6 459/2/6
f 459/2/6 458/2/6 460/2/6
f 461/2/6 462/2/6 463/2/6
f 463/2/6 462/2/6 464/2/6
f 465/2/6 466/2/6 471/2/6
f 466/1/6 467/1/6 472/1/6
f 471/2/6 466/2/6 472/2/6
f 468/1/6 469/1/6 473/1/6
f 469/2/6 470/2/6 474/2/6
f 473/1/6 469/1/6 474/1/6
f 474/2/6 470/2/6 475/2/6
f 472/1/6 467/1/6 476/1/6
f 476/1/6 467/1/6 477/1/6
f 478/2/6 479/2/6 482/2/6
f 482/2/6 479/2/6 483/2/6
f 483/2/6 479/2/6 484/2/6
f 480/2/6 481/2/6 485/2/6
f 485/2/6 481/2/6 486/2/6
f 486/2/6 481/2/6 487/2/6
f 483/1/6 484/1/6 488/1/6
f 485/1/6 486/1/6 488/1/6
f 484/1/6 485/1/6 488/1/6
f 488/1/6 486/1/6 489/1/6
